<svg width="99" height="40" viewBox="0 0 99 40" fill="none" xmlns="http://www.w3.org/2000/svg">
<path d="M9.78469 9.408C10.7287 9.584 11.5047 10.056 12.1127 10.824C12.7207 11.592 13.0247 12.472 13.0247 13.464C13.0247 14.36 12.8007 15.152 12.3527 15.84C11.9207 16.512 11.2887 17.04 10.4567 17.424C9.62469 17.808 8.64069 18 7.50469 18H0.280687V1.248H7.19269C8.32869 1.248 9.30469 1.432 10.1207 1.8C10.9527 2.168 11.5767 2.68 11.9927 3.336C12.4247 3.992 12.6407 4.736 12.6407 5.568C12.6407 6.544 12.3767 7.36 11.8487 8.016C11.3367 8.672 10.6487 9.136 9.78469 9.408ZM3.64069 8.16H6.71269C7.51269 8.16 8.12869 7.984 8.56069 7.632C8.99269 7.264 9.20869 6.744 9.20869 6.072C9.20869 5.4 8.99269 4.88 8.56069 4.512C8.12869 4.144 7.51269 3.96 6.71269 3.96H3.64069V8.16ZM7.02469 15.264C7.84069 15.264 8.47269 15.072 8.92069 14.688C9.38469 14.304 9.61669 13.76 9.61669 13.056C9.61669 12.336 9.37669 11.776 8.89669 11.376C8.41669 10.96 7.76869 10.752 6.95269 10.752H3.64069V15.264H7.02469ZM18.3426 6.768C18.7746 6.064 19.3346 5.512 20.0226 5.112C20.7266 4.712 21.5266 4.512 22.4226 4.512V8.04H21.5346C20.4786 8.04 19.6786 8.288 19.1346 8.784C18.6066 9.28 18.3426 10.144 18.3426 11.376V18H14.9826V4.704H18.3426V6.768ZM23.1017 11.304C23.1017 9.96 23.3657 8.768 23.8937 7.728C24.4377 6.688 25.1657 5.888 26.0777 5.328C27.0057 4.768 28.0377 4.488 29.1737 4.488C30.1657 4.488 31.0297 4.688 31.7657 5.088C32.5177 5.488 33.1177 5.992 33.5657 6.6V4.704H36.9497V18H33.5657V16.056C33.1337 16.68 32.5337 17.2 31.7657 17.616C31.0137 18.016 30.1417 18.216 29.1497 18.216C28.0297 18.216 27.0057 17.928 26.0777 17.352C25.1657 16.776 24.4377 15.968 23.8937 14.928C23.3657 13.872 23.1017 12.664 23.1017 11.304ZM33.5657 11.352C33.5657 10.536 33.4057 9.84 33.0857 9.264C32.7657 8.672 32.3337 8.224 31.7897 7.92C31.2457 7.6 30.6617 7.44 30.0377 7.44C29.4137 7.44 28.8377 7.592 28.3097 7.896C27.7817 8.2 27.3497 8.648 27.0137 9.24C26.6937 9.816 26.5337 10.504 26.5337 11.304C26.5337 12.104 26.6937 12.808 27.0137 13.416C27.3497 14.008 27.7817 14.464 28.3097 14.784C28.8537 15.104 29.4297 15.264 30.0377 15.264C30.6617 15.264 31.2457 15.112 31.7897 14.808C32.3337 14.488 32.7657 14.04 33.0857 13.464C33.4057 12.872 33.5657 12.168 33.5657 11.352ZM46.8793 4.512C48.4633 4.512 49.7433 5.016 50.7193 6.024C51.6953 7.016 52.1833 8.408 52.1833 10.2V18H48.8233V10.656C48.8233 9.6 48.5593 8.792 48.0313 8.232C47.5033 7.656 46.7833 7.368 45.8713 7.368C44.9433 7.368 44.2073 7.656 43.6633 8.232C43.1353 8.792 42.8713 9.6 42.8713 10.656V18H39.5113V4.704H42.8713V6.36C43.3193 5.784 43.8873 5.336 44.5753 5.016C45.2793 4.68 46.0473 4.512 46.8793 4.512ZM53.7945 11.304C53.7945 9.96 54.0585 8.768 54.5865 7.728C55.1305 6.688 55.8665 5.888 56.7945 5.328C57.7225 4.768 58.7545 4.488 59.8905 4.488C60.7545 4.488 61.5785 4.68 62.3625 5.064C63.1465 5.432 63.7705 5.928 64.2345 6.552V0.24H67.6425V18H64.2345V16.032C63.8185 16.688 63.2345 17.216 62.4825 17.616C61.7305 18.016 60.8585 18.216 59.8665 18.216C58.7465 18.216 57.7225 17.928 56.7945 17.352C55.8665 16.776 55.1305 15.968 54.5865 14.928C54.0585 13.872 53.7945 12.664 53.7945 11.304ZM64.2585 11.352C64.2585 10.536 64.0985 9.84 63.7785 9.264C63.4585 8.672 63.0265 8.224 62.4825 7.92C61.9385 7.6 61.3545 7.44 60.7305 7.44C60.1065 7.44 59.5305 7.592 59.0025 7.896C58.4745 8.2 58.0425 8.648 57.7065 9.24C57.3865 9.816 57.2265 10.504 57.2265 11.304C57.2265 12.104 57.3865 12.808 57.7065 13.416C58.0425 14.008 58.4745 14.464 59.0025 14.784C59.5465 15.104 60.1225 15.264 60.7305 15.264C61.3545 15.264 61.9385 15.112 62.4825 14.808C63.0265 14.488 63.4585 14.04 63.7785 13.464C64.0985 12.872 64.2585 12.168 64.2585 11.352ZM76.1081 18.216C74.8281 18.216 73.6761 17.936 72.6521 17.376C71.6281 16.8 70.8201 15.992 70.2281 14.952C69.6521 13.912 69.3641 12.712 69.3641 11.352C69.3641 9.992 69.6601 8.792 70.2521 7.752C70.8601 6.712 71.6841 5.912 72.7241 5.352C73.7641 4.776 74.9241 4.488 76.2041 4.488C77.4841 4.488 78.6441 4.776 79.6841 5.352C80.7241 5.912 81.5401 6.712 82.1321 7.752C82.7401 8.792 83.0441 9.992 83.0441 11.352C83.0441 12.712 82.7321 13.912 82.1081 14.952C81.5001 15.992 80.6681 16.8 79.6121 17.376C78.5721 17.936 77.4041 18.216 76.1081 18.216ZM76.1081 15.288C76.7161 15.288 77.2841 15.144 77.8121 14.856C78.3561 14.552 78.7881 14.104 79.1081 13.512C79.4281 12.92 79.5881 12.2 79.5881 11.352C79.5881 10.088 79.2521 9.12 78.5801 8.448C77.9241 7.76 77.1161 7.416 76.1561 7.416C75.1961 7.416 74.3881 7.76 73.7321 8.448C73.0921 9.12 72.7721 10.088 72.7721 11.352C72.7721 12.616 73.0841 13.592 73.7081 14.28C74.3481 14.952 75.1481 15.288 76.1081 15.288ZM92.1568 4.512C93.7408 4.512 95.0208 5.016 95.9968 6.024C96.9728 7.016 97.4608 8.408 97.4608 10.2V18H94.1008V10.656C94.1008 9.6 93.8368 8.792 93.3088 8.232C92.7808 7.656 92.0608 7.368 91.1488 7.368C90.2208 7.368 89.4848 7.656 88.9408 8.232C88.4128 8.792 88.1488 9.6 88.1488 10.656V18H84.7888V4.704H88.1488V6.36C88.5968 5.784 89.1648 5.336 89.8528 5.016C90.5568 4.68 91.3248 4.512 92.1568 4.512ZM14.0301 39L10.3341 32.472H8.75006V39H5.39006V22.248H11.6781C12.9741 22.248 14.0781 22.48 14.9901 22.944C15.9021 23.392 16.5821 24.008 17.0301 24.792C17.4941 25.56 17.7261 26.424 17.7261 27.384C17.7261 28.488 17.4061 29.488 16.7661 30.384C16.1261 31.264 15.1741 31.872 13.9101 32.208L17.9181 39H14.0301ZM8.75006 29.952H11.5581C12.4701 29.952 13.1501 29.736 13.5981 29.304C14.0461 28.856 14.2701 28.24 14.2701 27.456C14.2701 26.688 14.0461 26.096 13.5981 25.68C13.1501 25.248 12.4701 25.032 11.5581 25.032H8.75006V29.952ZM19.1811 32.304C19.1811 30.96 19.4451 29.768 19.9731 28.728C20.5171 27.688 21.2451 26.888 22.1571 26.328C23.0851 25.768 24.1171 25.488 25.2531 25.488C26.2451 25.488 27.1091 25.688 27.8451 26.088C28.5971 26.488 29.1971 26.992 29.6451 27.6V25.704H33.0291V39H29.6451V37.056C29.2131 37.68 28.6131 38.2 27.8451 38.616C27.0931 39.016 26.2211 39.216 25.2291 39.216C24.1091 39.216 23.0851 38.928 22.1571 38.352C21.2451 37.776 20.5171 36.968 19.9731 35.928C19.4451 34.872 19.1811 33.664 19.1811 32.304ZM29.6451 32.352C29.6451 31.536 29.4851 30.84 29.1651 30.264C28.8451 29.672 28.4131 29.224 27.8691 28.92C27.3251 28.6 26.7411 28.44 26.1171 28.44C25.4931 28.44 24.9171 28.592 24.3891 28.896C23.8611 29.2 23.4291 29.648 23.0931 30.24C22.7731 30.816 22.6131 31.504 22.6131 32.304C22.6131 33.104 22.7731 33.808 23.0931 34.416C23.4291 35.008 23.8611 35.464 24.3891 35.784C24.9331 36.104 25.5091 36.264 26.1171 36.264C26.7411 36.264 27.3251 36.112 27.8691 35.808C28.4131 35.488 28.8451 35.04 29.1651 34.464C29.4851 33.872 29.6451 33.168 29.6451 32.352ZM52.1027 25.512C53.7347 25.512 55.0467 26.016 56.0387 27.024C57.0467 28.016 57.5507 29.408 57.5507 31.2V39H54.1907V31.656C54.1907 30.616 53.9267 29.824 53.3987 29.28C52.8707 28.72 52.1507 28.44 51.2387 28.44C50.3267 28.44 49.5987 28.72 49.0547 29.28C48.5267 29.824 48.2627 30.616 48.2627 31.656V39H44.9027V31.656C44.9027 30.616 44.6387 29.824 44.1107 29.28C43.5827 28.72 42.8627 28.44 41.9507 28.44C41.0227 28.44 40.2867 28.72 39.7427 29.28C39.2147 29.824 38.9507 30.616 38.9507 31.656V39H35.5907V25.704H38.9507V27.312C39.3827 26.752 39.9347 26.312 40.6067 25.992C41.2947 25.672 42.0467 25.512 42.8627 25.512C43.9027 25.512 44.8307 25.736 45.6467 26.184C46.4627 26.616 47.0947 27.24 47.5427 28.056C47.9747 27.288 48.5987 26.672 49.4147 26.208C50.2467 25.744 51.1427 25.512 52.1027 25.512ZM61.7231 24.12C61.1311 24.12 60.6351 23.936 60.2351 23.568C59.8511 23.184 59.6591 22.712 59.6591 22.152C59.6591 21.592 59.8511 21.128 60.2351 20.76C60.6351 20.376 61.1311 20.184 61.7231 20.184C62.3151 20.184 62.8031 20.376 63.1871 20.76C63.5871 21.128 63.7871 21.592 63.7871 22.152C63.7871 22.712 63.5871 23.184 63.1871 23.568C62.8031 23.936 62.3151 24.12 61.7231 24.12ZM63.3791 25.704V39H60.0191V25.704H63.3791ZM69.3388 27.768C69.7708 27.064 70.3308 26.512 71.0188 26.112C71.7228 25.712 72.5228 25.512 73.4188 25.512V29.04H72.5308C71.4748 29.04 70.6748 29.288 70.1308 29.784C69.6028 30.28 69.3388 31.144 69.3388 32.376V39H65.9788V25.704H69.3388V27.768ZM87.3219 32.064C87.3219 32.544 87.2899 32.976 87.2259 33.36H77.5059C77.5859 34.32 77.9219 35.072 78.5139 35.616C79.1059 36.16 79.8339 36.432 80.6979 36.432C81.9459 36.432 82.8339 35.896 83.3619 34.824H86.9859C86.6019 36.104 85.8659 37.16 84.7779 37.992C83.6899 38.808 82.3539 39.216 80.7699 39.216C79.4899 39.216 78.3379 38.936 77.3139 38.376C76.3059 37.8 75.5139 36.992 74.9379 35.952C74.3779 34.912 74.0979 33.712 74.0979 32.352C74.0979 30.976 74.3779 29.768 74.9379 28.728C75.4979 27.688 76.2819 26.888 77.2899 26.328C78.2979 25.768 79.4579 25.488 80.7699 25.488C82.0339 25.488 83.1619 25.76 84.1539 26.304C85.1619 26.848 85.9379 27.624 86.4819 28.632C87.0419 29.624 87.3219 30.768 87.3219 32.064ZM83.8419 31.104C83.8259 30.24 83.5139 29.552 82.9059 29.04C82.2979 28.512 81.5539 28.248 80.6739 28.248C79.8419 28.248 79.1379 28.504 78.5619 29.016C78.0019 29.512 77.6579 30.208 77.5299 31.104H83.8419ZM92.1264 36.24H98.0544V39H88.3104V36.288L94.1184 28.464H88.3344V25.704H97.9824V28.416L92.1264 36.24Z" fill="#D6FFA3"/>
</svg>
